# xmcd
#
# Track frame offsets:
#	150
#	16107
#	28013
#	42058
#	55642
#	67232
#	79122
#	94406
#	106928
#	117890
#	130843
#	142488
#	157211
#	172011
#
# Disc length: 2493 seconds
#
# Revision: 0
# Processed by: cddbd v1.5.2PL0 Copyright (c) Steve Scherf et al.
# Submitted via: EasyCDDAExtractor 9.1.3.1
#
DISCID=c409bb0e
DTITLE=Менделевы - Втроём
DYEAR=2008
DGENRE=Bard
TTITLE0=Драндулет
TTITLE1=Фотоальбом
TTITLE2=Роман
TTITLE3=Осення цыганочка
TTITLE4=Пять восьмых
TTITLE5=Табуретка
TTITLE6=Город
TTITLE7=Левантийское танго
TTITLE8=Городской этюд
TTITLE9=Корабль плывёт
TTITLE10=Я хочу здесь родиться
TTITLE11=Под гармошку
TTITLE12=Самолётик
TTITLE13=Серенада
EXTD=
EXTT0=
EXTT1=
EXTT2=
EXTT3=
EXTT4=
EXTT5=
EXTT6=
EXTT7=
EXTT8=
EXTT9=
EXTT10=
EXTT11=
EXTT12=
EXTT13=
PLAYORDER=
